<?xml version="1.0" encoding="UTF-8"?><!DOCTYPE svg PUBLIC "-//W3C//DTD SVG 1.1//EN" "http://www.w3.org/Graphics/SVG/1.1/DTD/svg11.dtd"><svg xmlns="http://www.w3.org/2000/svg" xmlns:xlink="http://www.w3.org/1999/xlink" version="1.1" width="24" height="24" viewBox="0 0 24 24"><path d="M6,14A1,1 0 0,1 7,15A1,1 0 0,1 6,16A5,5 0 0,1 1,11A5,5 0 0,1 6,6C7,3.65 9.3,2 12,2C15.43,2 18.24,4.66 18.5,8.03L19,8A4,4 0 0,1 23,12A4,4 0 0,1 19,16H18A1,1 0 0,1 17,15A1,1 0 0,1 18,14H19A2,2 0 0,0 21,12A2,2 0 0,0 19,10H17V9A5,5 0 0,0 12,4C9.5,4 7.45,5.82 7.06,8.19C6.73,8.07 6.37,8 6,8A3,3 0 0,0 3,11A3,3 0 0,0 6,14M10,18A2,2 0 0,1 12,20A2,2 0 0,1 10,22A2,2 0 0,1 8,20A2,2 0 0,1 10,18M14.5,16A1.5,1.5 0 0,1 16,17.5A1.5,1.5 0 0,1 14.5,19A1.5,1.5 0 0,1 13,17.5A1.5,1.5 0 0,1 14.5,16M10.5,12A1.5,1.5 0 0,1 12,13.5A1.5,1.5 0 0,1 10.5,15A1.5,1.5 0 0,1 9,13.5A1.5,1.5 0 0,1 10.5,12Z" /></svg>